<?xml version="1.0" standalone="no"?><!DOCTYPE svg PUBLIC "-//W3C//DTD SVG 1.1//EN" "http://www.w3.org/Graphics/SVG/1.1/DTD/svg11.dtd"><svg height="480" node-id="1" sillyvg="true" template-height="480" template-width="480" version="1.1" viewBox="0 0 480 480" width="480" xmlns="http://www.w3.org/2000/svg" xmlns:xlink="http://www.w3.org/1999/xlink"><defs node-id="22"><linearGradient gradientUnits="objectBoundingBox" id="linearGradient-1" node-id="7" spreadMethod="pad" x1="0" x2="0.5" y1="0.5" y2="0.5"><stop offset="0" stop-color="#ffffff" stop-opacity="0.23382866"></stop><stop offset="1" stop-color="#ffffff"></stop></linearGradient></defs><g node-id="29"><g node-id="30"><g node-id="33"><path d="M 251.86 431.42 L 258.68 432.65 L 265.55 433.47 L 272.49 433.88 L 279.51 433.89 L 286.61 433.48 L 295.40 432.44 L 304.22 430.82 L 313.07 428.63 L 321.98 425.84 L 330.68 422.57 L 339.31 418.79 L 347.87 414.49 L 356.38 409.64 L 364.61 404.41 L 372.65 398.73 L 380.52 392.60 L 388.22 386.00 L 395.58 379.08 L 402.65 371.78 L 409.42 364.11 L 415.91 356.04 L 422.00 347.70 L 427.69 339.07 L 432.97 330.13 L 437.86 320.89 L 442.27 311.42 L 446.18 301.74 L 449.58 291.82 L 452.49 281.66 L 454.82 271.38 L 456.55 260.93 L 457.68 250.31 L 458.20 239.48 L 457.28 227.35 L 455.75 215.45 L 453.62 203.78 L 450.88 192.31 L 447.53 180.97 L 443.63 169.93 L 439.19 159.19 L 434.19 148.71 L 428.65 138.50 L 422.61 128.66 L 416.08 119.18 L 409.05 110.05 L 401.55 101.30 L 393.60 93.00 L 385.22 85.13 L 376.37 77.69 L 369.02 72.09 L 361.42 66.83 L 353.56 61.89 L 345.44 57.28 L 337.05 52.98 L 328.52 49.10 L 319.76 45.58 L 310.76 42.44 L 301.51 39.68 L 292.00 37.30 L 282.49 35.38 L 272.76 33.88 L 262.80 32.81 L 252.60 32.18 L 242.14 32.01 L 233.00 32.31 L 224.10 33.02 L 215.42 34.14 L 206.95 35.65 L 198.68 37.56 L 188.40 40.51 L 178.46 43.97 L 168.83 47.95 L 159.49 52.45 L 150.38 57.45 L 141.60 62.86 L 133.13 68.68 L 124.96 74.91 L 117.08 81.54 L 109.55 88.45 L 102.35 95.67 L 95.48 103.20 L 88.92 111.02 L 82.73 119.02 L 76.90 127.20 L 71.44 135.56 L 66.28 144.15 L 61.53 152.80 L 57.18 161.48 L 53.22 170.23 L 49.58 179.17 L 46.37 188.02 L 43.58 196.78 L 41.21 205.45 L 39.19 214.31 L 37.63 222.92 L 36.50 231.31 L 35.80 239.48 L 35.54 248.08 L 35.77 256.51 L 36.49 264.80 L 37.69 272.96 L 39.36 281.00 L 41.50 288.96 L 44.07 296.77 L 47.07 304.44 L 50.51 311.98 L 54.39 319.40 L 58.62 326.58 L 63.24 333.59 L 68.24 340.45 L 73.64 347.16 L 79.45 353.72 L 87.06 361.49 L 95.20 368.97 L 103.89 376.15 L 113.15 383.03 L 122.68 389.41 L 132.66 395.43 L 143.12 401.09 L 154.06 406.38 L 165.17 411.14 L 176.65 415.48 L 188.51 419.37 L 200.77 422.82 L 213.11 425.73 L 225.72 428.14 L 238.63 430.04 L 251.86 431.42 Z" fill="#65e57d" fill-opacity="0.2" fill-rule="evenodd" group-id="1,2,5" id="1" node-id="13" stroke="none" target-height="401.88245" target-width="422.65668" target-x="35.540962" target-y="32.00514"></path></g><g node-id="34"><path d="M 214.12 447.32 L 223.10 447.45 L 231.95 447.13 L 240.68 446.36 L 249.31 445.14 L 257.84 443.47 L 268.40 440.80 L 278.71 437.54 L 288.78 433.71 L 298.63 429.28 L 308.23 424.32 L 317.49 418.90 L 326.42 413.03 L 335.04 406.68 L 343.34 399.90 L 351.20 392.80 L 358.63 385.37 L 365.64 377.61 L 372.28 369.48 L 378.37 361.17 L 383.94 352.68 L 389.00 344.00 L 393.60 335.00 L 397.56 325.98 L 400.92 316.91 L 403.68 307.78 L 405.47 300.31 L 406.82 292.89 L 407.72 285.53 L 408.19 278.20 L 408.24 270.90 L 406.91 259.68 L 405.17 248.72 L 403.02 238.03 L 400.48 227.58 L 397.53 217.37 L 394.12 207.20 L 390.35 197.37 L 386.23 187.87 L 381.74 178.69 L 376.91 169.81 L 371.62 161.10 L 366.01 152.79 L 360.10 144.89 L 353.86 137.36 L 347.31 130.21 L 340.35 123.37 L 333.12 117.00 L 325.60 111.09 L 317.79 105.61 L 309.68 100.56 L 301.30 96.00 L 292.65 91.96 L 283.73 88.42 L 274.51 85.39 L 264.97 82.86 L 255.40 80.94 L 245.56 79.59 L 235.41 78.82 L 224.94 78.65 L 214.12 79.10 L 202.62 80.21 L 191.38 81.84 L 180.38 83.97 L 169.61 86.59 L 158.93 89.74 L 148.57 93.32 L 138.51 97.32 L 128.75 101.76 L 119.17 106.67 L 109.98 111.93 L 101.16 117.55 L 92.71 123.53 L 84.52 129.94 L 76.79 136.63 L 69.50 143.60 L 62.65 150.85 L 56.15 158.49 L 50.18 166.33 L 44.71 174.38 L 39.73 182.66 L 35.23 191.24 L 31.30 199.96 L 27.94 208.84 L 25.13 217.90 L 22.90 227.12 L 21.31 236.45 L 20.34 245.91 L 20.00 255.51 L 20.50 262.17 L 21.47 269.08 L 22.94 276.28 L 24.92 283.79 L 27.26 291.07 L 30.04 298.51 L 33.28 306.13 L 37.00 313.92 L 42.41 324.00 L 48.54 334.14 L 55.42 344.37 L 62.78 354.27 L 70.76 364.00 L 79.37 373.60 L 88.42 382.78 L 97.97 391.59 L 108.03 400.05 L 115.85 406.06 L 123.87 411.75 L 132.12 417.12 L 140.59 422.18 L 149.26 426.88 L 158.09 431.15 L 167.07 435.01 L 176.22 438.45 L 185.53 441.44 L 194.94 443.91 L 204.46 445.87 L 214.12 447.32 Z" fill="#65e57d" fill-opacity="0.3" fill-rule="evenodd" group-id="1,2,6" id="2" node-id="14" stroke="none" target-height="368.8023" target-width="388.2353" target-x="20" target-y="78.65117"></path></g><g node-id="35"><path d="M 227.92 410.45 L 238.47 411.99 L 248.68 412.98 L 258.56 413.44 L 268.15 413.39 L 277.45 412.85 L 286.89 411.80 L 296.00 410.31 L 304.80 408.38 L 313.32 406.03 L 321.57 403.27 L 329.74 400.03 L 337.61 396.44 L 345.17 392.49 L 352.45 388.19 L 359.45 383.53 L 366.24 378.48 L 372.71 373.16 L 378.87 367.55 L 384.72 361.64 L 390.29 355.43 L 396.81 347.30 L 402.81 338.83 L 408.29 330.01 L 413.27 320.81 L 417.69 311.34 L 421.55 301.64 L 424.84 291.68 L 427.57 281.46 L 429.70 271.11 L 431.21 260.63 L 432.11 250.00 L 432.39 239.20 L 432.71 232.07 L 432.60 224.95 L 432.06 217.81 L 431.09 210.65 L 429.67 203.45 L 427.37 194.63 L 424.48 185.84 L 420.99 177.08 L 416.89 168.32 L 412.34 159.85 L 407.28 151.50 L 401.72 143.27 L 395.62 135.14 L 389.18 127.33 L 382.34 119.75 L 375.08 112.38 L 367.41 105.23 L 359.45 98.42 L 351.21 91.93 L 342.66 85.77 L 333.81 79.93 L 324.72 74.46 L 315.46 69.41 L 306.02 64.79 L 296.39 60.57 L 286.56 56.79 L 276.68 53.53 L 266.73 50.76 L 256.70 48.50 L 246.55 46.76 L 236.44 45.60 L 226.37 45.03 L 216.31 45.03 L 204.95 45.35 L 194.05 46.20 L 183.58 47.57 L 173.50 49.44 L 163.81 51.80 L 154.08 54.73 L 144.78 58.08 L 135.89 61.84 L 127.37 66.01 L 119.22 70.58 L 111.25 75.64 L 103.69 81.03 L 96.52 86.73 L 89.74 92.75 L 83.33 99.11 L 77.23 105.84 L 71.55 112.79 L 66.27 119.99 L 61.39 127.43 L 56.90 135.12 L 52.81 143.05 L 49.14 151.13 L 45.91 159.36 L 43.10 167.76 L 40.71 176.34 L 38.77 185.02 L 37.28 193.76 L 36.25 202.58 L 35.67 211.49 L 35.54 220.50 L 36.72 228.95 L 38.50 239.23 L 40.78 249.96 L 43.91 262.03 L 46.36 270.12 L 49.28 278.58 L 52.69 287.41 L 56.47 296.08 L 60.82 304.90 L 65.77 313.89 L 71.17 322.60 L 77.26 331.29 L 84.07 339.96 L 89.48 346.17 L 95.34 352.26 L 101.68 358.26 L 108.51 364.15 L 115.54 369.63 L 123.12 374.93 L 131.27 380.04 L 140.02 384.95 L 148.87 389.35 L 158.37 393.48 L 168.58 397.33 L 179.52 400.88 L 190.39 403.86 L 202.05 406.46 L 214.55 408.66 L 227.92 410.45 Z" fill="#65e57d" fill-opacity="0.4" fill-rule="evenodd" group-id="1,2,7" id="3" node-id="15" stroke="none" target-height="368.4121" target-width="397.16455" target-x="35.54467" target-y="45.029274"></path></g><g node-id="36"><path d="M 213.18 406.50 L 224.92 408.67 L 236.29 410.39 L 247.31 411.67 L 257.99 412.52 L 268.84 412.93 L 279.24 412.81 L 289.23 412.18 L 298.83 411.05 L 306.54 409.72 L 313.96 408.00 L 321.10 405.90 L 327.97 403.44 L 334.59 400.60 L 341.03 397.32 L 347.20 393.61 L 353.11 389.43 L 358.77 384.80 L 364.20 379.68 L 369.15 374.28 L 373.87 368.33 L 378.34 361.79 L 382.57 354.63 L 386.55 346.80 L 389.91 339.05 L 393.01 330.60 L 395.83 321.39 L 398.35 311.36 L 400.56 300.48 L 402.19 290.05 L 403.50 278.76 L 404.44 266.57 L 405.00 253.41 L 405.13 239.22 L 402.23 226.31 L 398.92 214.24 L 395.23 202.95 L 391.16 192.41 L 386.48 181.91 L 381.51 172.13 L 376.25 163.01 L 370.71 154.53 L 364.64 146.27 L 358.37 138.61 L 351.89 131.52 L 345.21 124.98 L 338.13 118.76 L 330.92 113.06 L 323.59 107.86 L 316.13 103.14 L 308.39 98.78 L 300.61 94.87 L 292.79 91.41 L 284.92 88.38 L 276.86 85.71 L 268.87 83.45 L 260.92 81.58 L 253.02 80.10 L 242.36 78.66 L 231.99 77.86 L 221.88 77.67 L 208.81 78.44 L 196.53 79.62 L 185.01 81.18 L 174.21 83.10 L 164.08 85.36 L 153.69 88.18 L 143.96 91.32 L 134.87 94.75 L 126.37 98.48 L 118.44 102.48 L 110.54 107.03 L 103.17 111.83 L 96.31 116.88 L 89.93 122.18 L 84.02 127.73 L 78.37 133.68 L 73.15 139.86 L 68.33 146.27 L 63.91 152.91 L 59.87 159.80 L 55.36 168.70 L 51.39 177.92 L 47.95 187.48 L 45.06 197.40 L 42.73 207.42 L 40.88 217.72 L 39.51 228.31 L 38.63 239.22 L 39.87 245.65 L 41.59 252.78 L 43.84 260.67 L 46.42 268.42 L 49.53 276.63 L 53.21 285.33 L 57.24 293.84 L 61.83 302.57 L 67.03 311.51 L 72.61 320.21 L 78.79 328.88 L 85.59 337.54 L 92.82 345.83 L 100.68 353.90 L 109.20 361.73 L 115.85 367.26 L 122.88 372.55 L 130.30 377.60 L 138.13 382.41 L 146.12 386.79 L 154.54 390.84 L 163.38 394.54 L 172.70 397.89 L 182.07 400.72 L 191.92 403.10 L 202.28 405.04 L 213.18 406.50 Z" fill="#65e57d" fill-opacity="0.4" fill-rule="evenodd" group-id="1,2,8" id="4" node-id="16" stroke="none" target-height="335.25604" target-width="366.49548" target-x="38.6346" target-y="77.67497"></path></g><path d="M 215.43 367.61 L 228.38 365.58 L 240.79 363.09 L 252.69 360.15 L 264.10 356.78 L 275.47 352.85 L 286.26 348.54 L 296.50 343.88 L 306.21 338.86 L 315.75 333.30 L 324.68 327.46 L 333.02 321.34 L 340.80 314.94 L 348.27 308.04 L 355.10 300.94 L 361.31 293.63 L 366.93 286.11 L 371.11 279.78 L 374.85 273.36 L 378.18 266.84 L 381.11 260.21 L 383.65 253.47 L 385.78 246.57 L 387.48 239.59 L 388.75 232.53 L 389.59 225.38 L 389.99 218.11 L 390.99 207.41 L 391.38 197.25 L 391.20 187.58 L 390.47 178.38 L 389.22 169.61 L 387.37 160.72 L 385.03 152.29 L 382.23 144.28 L 378.97 136.68 L 375.25 129.45 L 370.99 122.43 L 366.33 115.79 L 361.27 109.53 L 355.78 103.62 L 349.86 98.06 L 343.61 92.91 L 337.01 88.12 L 330.03 83.68 L 322.65 79.60 L 314.86 75.87 L 306.97 72.62 L 298.77 69.73 L 290.22 67.21 L 281.32 65.07 L 272.04 63.32 L 262.85 62.02 L 253.38 61.11 L 243.63 60.60 L 233.57 60.51 L 223.20 60.84 L 211.53 63.82 L 200.46 67.12 L 189.97 70.74 L 180.02 74.66 L 170.60 78.87 L 161.68 83.38 L 152.72 88.45 L 144.27 93.80 L 136.32 99.43 L 128.83 105.32 L 121.80 111.50 L 115.20 117.95 L 108.89 124.82 L 103.01 131.95 L 97.56 139.36 L 92.51 147.04 L 87.86 155.01 L 83.62 163.28 L 79.84 171.70 L 76.44 180.38 L 73.43 189.35 L 70.81 198.62 L 68.58 208.20 L 66.75 218.11 L 66.59 242.02 L 66.69 254.60 L 67.16 267.49 L 67.76 276.10 L 68.68 284.62 L 69.93 293.06 L 71.60 301.41 L 73.75 309.48 L 76.38 317.28 L 78.74 322.99 L 81.46 328.46 L 84.54 333.70 L 87.99 338.72 L 91.81 343.43 L 96.10 347.86 L 100.90 352.02 L 106.23 355.92 L 111.77 359.29 L 117.97 362.34 L 124.88 365.06 L 132.56 367.43 L 140.16 369.19 L 148.63 370.53 L 158.03 371.42 L 168.47 371.81 L 178.53 371.66 L 189.65 370.95 L 201.92 369.62 L 215.43 367.61 Z" fill="#65e57d" fill-opacity="0.6" fill-rule="evenodd" group-id="1,2,9" id="5" node-id="17" stroke="none" target-height="311.30258" target-width="324.79132" target-x="66.58952" target-y="60.51003"></path></g><g node-id="31"><path d="M 163.00 182.00 L 318.00 182.00 L 318.00 322.00 L 163.00 322.00 Z" fill="url(#linearGradient-1)" fill-opacity="0.5" fill-rule="evenodd" group-id="1,3" id="矩形" node-id="18" stroke="none" target-height="140" target-width="155" target-x="163" target-y="182"></path></g><path d="M 310.89 151.00 L 290.78 151.00 L 290.43 154.67 L 289.51 158.05 L 288.02 161.18 L 286.02 164.02 L 283.62 166.43 L 280.80 168.44 L 277.68 169.94 L 274.32 170.87 L 270.67 171.21 L 210.33 171.21 L 206.68 170.87 L 203.32 169.94 L 200.20 168.44 L 197.38 166.43 L 194.98 164.02 L 192.98 161.18 L 191.49 158.05 L 190.57 154.67 L 190.22 151.00 L 170.11 151.00 L 166.46 151.34 L 163.10 152.27 L 159.98 153.77 L 157.16 155.78 L 154.76 158.19 L 152.76 161.03 L 151.26 164.16 L 150.34 167.54 L 150.00 171.21 L 150.00 322.79 L 150.34 326.46 L 151.26 329.84 L 152.76 332.97 L 154.76 335.81 L 157.16 338.22 L 159.98 340.23 L 163.10 341.73 L 166.46 342.66 L 170.11 343.00 L 310.89 343.00 L 314.54 342.66 L 317.90 341.73 L 321.02 340.23 L 323.84 338.22 L 326.24 335.81 L 328.24 332.97 L 329.74 329.84 L 330.66 326.46 L 331.00 322.79 L 331.00 171.21 L 330.66 167.54 L 329.74 164.16 L 328.24 161.03 L 326.24 158.19 L 323.84 155.78 L 321.02 153.77 L 317.90 152.27 L 314.54 151.34 L 310.89 151.00 Z M 295.01 304.08 L 188.58 304.08 L 186.74 303.90 L 185.05 303.43 L 183.47 302.66 L 182.05 301.63 L 180.84 300.39 L 179.83 298.93 L 179.08 297.32 L 178.62 295.59 L 178.44 293.70 L 178.62 291.81 L 179.08 290.08 L 179.83 288.48 L 180.84 287.02 L 182.05 285.78 L 183.47 284.75 L 185.05 283.98 L 186.74 283.50 L 188.58 283.32 L 295.01 283.32 L 296.85 283.50 L 298.54 283.98 L 300.11 284.75 L 301.53 285.78 L 302.74 287.02 L 303.75 288.48 L 304.51 290.08 L 304.97 291.81 L 305.14 293.70 L 304.97 295.59 L 304.51 297.32 L 303.75 298.93 L 302.74 300.39 L 301.53 301.63 L 300.11 302.66 L 298.54 303.43 L 296.85 303.90 L 295.01 304.08 Z M 295.01 262.57 L 188.58 262.57 L 186.74 262.39 L 185.05 261.92 L 183.47 261.15 L 182.05 260.11 L 180.84 258.88 L 179.83 257.42 L 179.08 255.81 L 178.62 254.08 L 178.44 252.19 L 178.62 250.30 L 179.08 248.57 L 179.83 246.96 L 180.84 245.50 L 182.05 244.26 L 183.47 243.23 L 185.05 242.46 L 186.74 241.99 L 188.58 241.81 L 295.01 241.81 L 296.85 241.99 L 298.54 242.46 L 300.11 243.23 L 301.53 244.26 L 302.74 245.50 L 303.75 246.96 L 304.51 248.57 L 304.97 250.30 L 305.14 252.19 L 304.97 254.08 L 304.51 255.81 L 303.75 257.42 L 302.74 258.88 L 301.53 260.11 L 300.11 261.15 L 298.54 261.92 L 296.85 262.39 L 295.01 262.57 Z M 295.01 221.05 L 188.58 221.05 L 186.74 220.88 L 185.05 220.40 L 183.47 219.63 L 182.05 218.60 L 180.84 217.36 L 179.83 215.90 L 179.08 214.30 L 178.62 212.56 L 178.44 210.68 L 178.62 208.79 L 179.08 207.05 L 179.83 205.45 L 180.84 203.99 L 182.05 202.75 L 183.47 201.72 L 185.05 200.95 L 186.74 200.47 L 188.58 200.30 L 295.01 200.30 L 296.85 200.47 L 298.54 200.95 L 300.11 201.72 L 301.53 202.75 L 302.74 203.99 L 303.75 205.45 L 304.51 207.05 L 304.97 208.79 L 305.14 210.68 L 304.97 212.56 L 304.51 214.30 L 303.75 215.90 L 302.74 217.36 L 301.53 218.60 L 300.11 219.63 L 298.54 220.40 L 296.85 220.88 L 295.01 221.05 Z" fill="#ffffff" fill-rule="nonzero" group-id="1" id="形状" node-id="19" stroke="none" target-height="192" target-width="181" target-x="150" target-y="151"></path><path d="M 271.00 159.00 L 211.00 159.00 L 208.32 158.67 L 205.96 157.77 L 203.93 156.35 L 202.37 154.53 L 201.62 153.13 L 201.17 151.63 L 201.00 150.00 L 201.17 148.37 L 201.62 146.87 L 202.37 145.47 L 203.93 143.65 L 205.96 142.23 L 208.32 141.33 L 211.00 141.00 L 271.00 141.00 L 273.68 141.33 L 276.04 142.23 L 278.07 143.65 L 279.63 145.47 L 280.38 146.87 L 280.83 148.37 L 281.00 150.00 L 280.83 151.63 L 280.38 153.13 L 279.63 154.53 L 278.07 156.35 L 276.04 157.77 L 273.68 158.67 L 271.00 159.00 Z" fill="#ffffff" fill-opacity="0.6" fill-rule="nonzero" group-id="1,4" id="路径" node-id="20" stroke="none" target-height="18" target-width="80" target-x="201" target-y="141"></path></g></svg>